<svg xmlns="http://www.w3.org/2000/svg" xmlns:xlink="http://www.w3.org/1999/xlink" width="500" zoomAndPan="magnify" viewBox="0 0 375 374.999991" height="500" preserveAspectRatio="xMidYMid meet" version="1.0"><defs><g/><clipPath id="f6005d1830"><path d="M 115.402344 90.515625 L 258.371094 90.515625 L 258.371094 236.480469 L 115.402344 236.480469 Z M 115.402344 90.515625 " clip-rule="nonzero"/></clipPath><clipPath id="a7a13993fb"><path d="M 241.324219 226.011719 L 208.722656 226.011719 C 208.652344 226.011719 208.589844 225.910156 208.523438 225.710938 L 194.238281 196.59375 L 193.066406 194.207031 C 192.964844 193.984375 191.84375 191.667969 189.699219 187.269531 C 188.179688 184.148438 186.144531 179.980469 183.597656 174.765625 L 216.34375 174.765625 C 217.042969 176.1875 217.757812 177.648438 218.492188 179.152344 C 219.089844 180.414062 226.699219 196 241.324219 225.914062 Z M 171.703125 207.214844 C 168.980469 201.632812 167.460938 198.527344 167.148438 197.902344 C 167.148438 197.898438 167.144531 197.898438 167.144531 197.898438 L 155.785156 174.769531 L 171.878906 174.769531 C 174.296875 179.71875 177.0625 185.382812 180.175781 191.761719 C 180.1875 191.78125 180.195312 191.800781 180.207031 191.820312 C 181.808594 195.101562 183.320312 198.1875 184.734375 201.078125 C 190.285156 212.433594 194.359375 220.75 196.953125 226.035156 L 180.890625 226.035156 C 177.007812 218.082031 173.949219 211.8125 171.703125 207.21875 M 132.746094 225.117188 L 150.695312 188.328125 C 150.734375 188.40625 153.03125 193.101562 157.585938 202.40625 C 158.914062 205.121094 160.4375 208.226562 162.144531 211.722656 C 164.203125 215.921875 166.53125 220.683594 169.140625 226.015625 L 132.25 226.015625 C 132.511719 225.484375 132.683594 225.1875 132.746094 225.117188 M 170.4375 147.847656 C 180.9375 126.375 186.386719 115.242188 186.785156 114.445312 L 197.753906 136.878906 C 198.28125 137.9375 202.785156 147.113281 211.261719 164.398438 L 178.527344 164.398438 C 176.125 159.488281 173.429688 153.972656 170.4375 147.847656 M 244.117188 207.765625 C 231.621094 182.046875 225.175781 168.816406 224.773438 168.085938 C 224.507812 167.554688 217.828125 153.894531 204.734375 127.109375 C 192.835938 102.847656 186.886719 90.652344 186.886719 90.515625 L 186.785156 90.515625 C 186.785156 90.585938 186.152344 91.847656 184.894531 94.308594 L 180.105469 104.078125 C 179.507812 105.34375 172.363281 119.929688 158.671875 147.847656 C 159.136719 148.714844 159.402344 149.210938 159.472656 149.34375 C 160.140625 150.71875 162.585938 155.738281 166.820312 164.398438 L 150.644531 164.398438 L 150.644531 164.441406 C 150.546875 164.550781 150.367188 164.898438 150.097656 165.496094 L 135.738281 194.90625 C 135.273438 195.769531 128.496094 209.628906 115.402344 236.480469 L 185.988281 236.480469 C 185.976562 236.453125 185.960938 236.425781 185.949219 236.398438 L 202.074219 236.398438 C 202.109375 236.449219 202.132812 236.480469 202.140625 236.480469 L 258.175781 236.480469 Z M 244.117188 207.765625 " clip-rule="nonzero"/></clipPath></defs><g fill="#000000" fill-opacity="1"><g transform="translate(51.420618, 195.042604)"><g><path d="M -5.5 -14.46875 L 0.375 -17.046875 L 0.4375 -19.78125 L -19.5 -11.03125 L -19.53125 -9.625 L 0.015625 -0.84375 L 0.046875 -2.140625 L -5.71875 -4.75 Z M -6.78125 -13.90625 L -6.96875 -5.3125 L -16.375 -9.578125 L -16.375 -9.6875 Z M -6.78125 -13.90625 "/></g></g></g><g fill="#000000" fill-opacity="1"><g transform="translate(53.030471, 165.407556)"><g><path d="M 0.890625 -3.5625 L -18.25 -8.359375 L -16.671875 -14.640625 C -16.296875 -16.148438 -15.707031 -17.472656 -14.90625 -18.609375 C -14.101562 -19.753906 -13.164062 -20.671875 -12.09375 -21.359375 C -11.019531 -22.046875 -9.835938 -22.492188 -8.546875 -22.703125 C -7.265625 -22.910156 -5.945312 -22.84375 -4.59375 -22.5 C -3.1875 -22.15625 -1.957031 -21.570312 -0.90625 -20.75 C 0.132812 -19.9375 0.96875 -18.972656 1.59375 -17.859375 C 2.226562 -16.753906 2.628906 -15.535156 2.796875 -14.203125 C 2.972656 -12.878906 2.890625 -11.535156 2.546875 -10.171875 Z M 0.3125 -6.34375 L 1.0625 -9.34375 C 1.4375 -10.84375 1.503906 -12.175781 1.265625 -13.34375 C 1.023438 -14.519531 0.59375 -15.546875 -0.03125 -16.421875 C -0.664062 -17.296875 -1.441406 -18.015625 -2.359375 -18.578125 C -3.273438 -19.140625 -4.222656 -19.539062 -5.203125 -19.78125 C -6.304688 -20.0625 -7.410156 -20.144531 -8.515625 -20.03125 C -9.617188 -19.914062 -10.644531 -19.601562 -11.59375 -19.09375 C -12.539062 -18.59375 -13.367188 -17.878906 -14.078125 -16.953125 C -14.796875 -16.023438 -15.328125 -14.882812 -15.671875 -13.53125 L -16.421875 -10.53125 Z M 0.3125 -6.34375 "/></g></g></g><g fill="#000000" fill-opacity="1"><g transform="translate(61.899889, 135.820486)"><g/></g></g><g fill="#000000" fill-opacity="1"><g transform="translate(70.30727, 118.45072)"><g><path d="M 3.515625 -15.0625 L 9.828125 -13.921875 L 11.40625 -16.15625 L -10.015625 -20.03125 L -10.828125 -18.875 L 0.484375 -0.6875 L 1.234375 -1.75 L -2.078125 -7.125 Z M 2.140625 -15.3125 L -2.8125 -8.296875 L -8.234375 -17.09375 L -8.171875 -17.1875 Z M 2.140625 -15.3125 "/></g></g></g><g fill="#000000" fill-opacity="1"><g transform="translate(88.123209, 94.762352)"><g><path d="M 10.09375 -20.75 L 5.921875 -17.03125 L 6.6875 -16.171875 L 9.046875 -18.28125 L 12.4375 -14.46875 C 12.164062 -13.5 11.785156 -12.625 11.296875 -11.84375 C 10.816406 -11.0625 10.15625 -10.296875 9.3125 -9.546875 C 8.195312 -8.566406 7.078125 -7.875 5.953125 -7.46875 C 4.828125 -7.0625 3.722656 -6.910156 2.640625 -7.015625 C 1.566406 -7.117188 0.53125 -7.460938 -0.46875 -8.046875 C -1.476562 -8.640625 -2.421875 -9.425781 -3.296875 -10.40625 C -4.148438 -11.363281 -4.8125 -12.363281 -5.28125 -13.40625 C -5.75 -14.457031 -5.984375 -15.507812 -5.984375 -16.5625 C -5.992188 -17.613281 -5.765625 -18.632812 -5.296875 -19.625 C -4.835938 -20.613281 -4.109375 -21.550781 -3.109375 -22.4375 C -2.453125 -23.03125 -1.769531 -23.507812 -1.0625 -23.875 C -0.363281 -24.25 0.304688 -24.523438 0.953125 -24.703125 C 1.609375 -24.878906 2.207031 -24.945312 2.75 -24.90625 C 3.289062 -24.875 3.734375 -24.75 4.078125 -24.53125 L 5.59375 -25.875 C 5.1875 -26.082031 4.660156 -26.242188 4.015625 -26.359375 C 3.367188 -26.472656 2.632812 -26.46875 1.8125 -26.34375 C 1 -26.21875 0.109375 -25.925781 -0.859375 -25.46875 C -1.828125 -25.019531 -2.832031 -24.335938 -3.875 -23.421875 C -5.070312 -22.359375 -6.019531 -21.210938 -6.71875 -19.984375 C -7.425781 -18.753906 -7.859375 -17.5 -8.015625 -16.21875 C -8.179688 -14.9375 -8.054688 -13.65625 -7.640625 -12.375 C -7.234375 -11.09375 -6.515625 -9.867188 -5.484375 -8.703125 C -4.585938 -7.703125 -3.566406 -6.875 -2.421875 -6.21875 C -1.285156 -5.570312 -0.0625 -5.171875 1.25 -5.015625 C 2.5625 -4.859375 3.921875 -5.007812 5.328125 -5.46875 C 6.734375 -5.925781 8.132812 -6.78125 9.53125 -8.03125 C 10.59375 -8.96875 11.425781 -9.910156 12.03125 -10.859375 C 12.632812 -11.816406 13.078125 -12.675781 13.359375 -13.4375 L 14.125 -12.578125 L 15.9375 -14.1875 Z M 10.09375 -20.75 "/></g></g></g><g fill="#000000" fill-opacity="1"><g transform="translate(112.952823, 74.405163)"><g><path d="M -6.71875 -18.859375 L 2.9375 -1.65625 L 14.0625 -7.890625 L 13.3125 -9.234375 L 4.4375 -4.265625 L 0.390625 -11.484375 L 8.015625 -15.75 L 7.375 -16.875 L -0.25 -12.609375 L -3.71875 -18.78125 L 5.15625 -23.75 L 4.40625 -25.09375 Z M -6.71875 -18.859375 "/></g></g></g><g fill="#000000" fill-opacity="1"><g transform="translate(135.990324, 62.178161)"><g><path d="M 12.78125 -24.453125 L 17.125 -10.015625 L 17.015625 -9.984375 L -2.40625 -20.21875 L -2.546875 -20.171875 L 3.234375 -0.96875 L 4.46875 -1.34375 L 0.125 -15.78125 L 0.25 -15.8125 L 19.65625 -5.5625 L 19.796875 -5.609375 L 14.015625 -24.828125 Z M 12.78125 -24.453125 "/></g></g></g><g fill="#000000" fill-opacity="1"><g transform="translate(167.81519, 53.850945)"><g><path d="M 19.75 -4.796875 C 17.9375 -2.878906 15.71875 -1.847656 13.09375 -1.703125 C 11.632812 -1.617188 10.320312 -1.796875 9.15625 -2.234375 C 8 -2.671875 7.019531 -3.285156 6.21875 -4.078125 C 5.425781 -4.878906 4.804688 -5.820312 4.359375 -6.90625 C 3.910156 -7.988281 3.65625 -9.132812 3.59375 -10.34375 C 3.507812 -11.613281 3.640625 -12.789062 3.984375 -13.875 C 4.328125 -14.957031 4.835938 -15.90625 5.515625 -16.71875 C 6.203125 -17.53125 7.035156 -18.179688 8.015625 -18.671875 C 8.992188 -19.160156 10.078125 -19.441406 11.265625 -19.515625 C 12.078125 -19.554688 12.816406 -19.503906 13.484375 -19.359375 C 14.160156 -19.210938 14.765625 -19 15.296875 -18.71875 C 15.835938 -18.445312 16.28125 -18.128906 16.625 -17.765625 C 16.976562 -17.398438 17.234375 -17.023438 17.390625 -16.640625 L 19.46875 -16.765625 C 19.15625 -17.390625 18.757812 -17.957031 18.28125 -18.46875 C 17.8125 -18.988281 17.234375 -19.425781 16.546875 -19.78125 C 15.867188 -20.144531 15.082031 -20.410156 14.1875 -20.578125 C 13.289062 -20.753906 12.285156 -20.8125 11.171875 -20.75 C 9.535156 -20.65625 8.054688 -20.332031 6.734375 -19.78125 C 5.421875 -19.238281 4.3125 -18.5 3.40625 -17.5625 C 2.507812 -16.632812 1.832031 -15.539062 1.375 -14.28125 C 0.914062 -13.03125 0.734375 -11.644531 0.828125 -10.125 C 0.898438 -8.8125 1.179688 -7.546875 1.671875 -6.328125 C 2.171875 -5.109375 2.890625 -4.039062 3.828125 -3.125 C 4.765625 -2.207031 5.929688 -1.488281 7.328125 -0.96875 C 8.734375 -0.457031 10.390625 -0.257812 12.296875 -0.375 C 13.484375 -0.4375 14.546875 -0.609375 15.484375 -0.890625 C 16.421875 -1.179688 17.234375 -1.507812 17.921875 -1.875 C 18.609375 -2.25 19.175781 -2.632812 19.625 -3.03125 C 20.070312 -3.4375 20.40625 -3.785156 20.625 -4.078125 Z M 19.75 -4.796875 "/></g></g></g><g fill="#000000" fill-opacity="1"><g transform="translate(198.310107, 53.245619)"><g><path d="M 3.890625 -19.375 L 8.734375 -6.1875 L 7.578125 1.1875 L 10.109375 1.59375 L 11.3125 -6.03125 L 20.03125 -16.828125 L 18.515625 -17.0625 L 10.953125 -7.71875 L 10.84375 -7.75 L 6.765625 -18.921875 Z M 3.890625 -19.375 "/></g></g></g><g fill="#000000" fill-opacity="1"><g transform="translate(225.233261, 58.670746)"><g/></g></g><g fill="#000000" fill-opacity="1"><g transform="translate(243.357131, 65.233203)"><g><path d="M 19.1875 6.671875 C 16.632812 7.304688 14.210938 6.972656 11.921875 5.671875 C 10.648438 4.953125 9.644531 4.09375 8.90625 3.09375 C 8.164062 2.09375 7.675781 1.039062 7.4375 -0.0625 C 7.207031 -1.164062 7.195312 -2.289062 7.40625 -3.4375 C 7.613281 -4.59375 8.015625 -5.695312 8.609375 -6.75 C 9.242188 -7.851562 10 -8.765625 10.875 -9.484375 C 11.75 -10.210938 12.691406 -10.734375 13.703125 -11.046875 C 14.722656 -11.359375 15.773438 -11.453125 16.859375 -11.328125 C 17.953125 -11.210938 19.015625 -10.863281 20.046875 -10.28125 C 20.753906 -9.875 21.347656 -9.425781 21.828125 -8.9375 C 22.316406 -8.445312 22.710938 -7.941406 23.015625 -7.421875 C 23.316406 -6.910156 23.515625 -6.40625 23.609375 -5.90625 C 23.703125 -5.40625 23.710938 -4.953125 23.640625 -4.546875 L 25.4375 -3.515625 C 25.519531 -4.222656 25.5 -4.921875 25.375 -5.609375 C 25.257812 -6.296875 25.015625 -6.972656 24.640625 -7.640625 C 24.265625 -8.316406 23.742188 -8.96875 23.078125 -9.59375 C 22.421875 -10.21875 21.601562 -10.8125 20.625 -11.375 C 19.207031 -12.175781 17.796875 -12.703125 16.390625 -12.953125 C 14.992188 -13.210938 13.660156 -13.195312 12.390625 -12.90625 C 11.128906 -12.625 9.960938 -12.078125 8.890625 -11.265625 C 7.828125 -10.453125 6.921875 -9.382812 6.171875 -8.0625 C 5.523438 -6.925781 5.078125 -5.707031 4.828125 -4.40625 C 4.585938 -3.113281 4.613281 -1.828125 4.90625 -0.546875 C 5.195312 0.734375 5.789062 1.96875 6.6875 3.15625 C 7.59375 4.351562 8.875 5.421875 10.53125 6.359375 C 11.570312 6.953125 12.5625 7.378906 13.5 7.640625 C 14.4375 7.910156 15.289062 8.078125 16.0625 8.140625 C 16.84375 8.203125 17.53125 8.1875 18.125 8.09375 C 18.71875 8 19.191406 7.890625 19.546875 7.765625 Z M 19.1875 6.671875 "/></g></g></g><g fill="#000000" fill-opacity="1"><g transform="translate(269.302437, 81.163513)"><g><path d="M 15.765625 -12.34375 L 2.5 2.265625 L 4.40625 4 L 10.25 -2.4375 L 11.171875 -1.609375 C 11.554688 -1.253906 11.84375 -0.925781 12.03125 -0.625 C 12.226562 -0.320312 12.351562 0.00390625 12.40625 0.359375 C 12.46875 0.710938 12.472656 1.101562 12.421875 1.53125 C 12.367188 1.957031 12.285156 2.484375 12.171875 3.109375 L 11.625 7.03125 C 11.53125 7.539062 11.46875 8.019531 11.4375 8.46875 C 11.40625 8.925781 11.421875 9.351562 11.484375 9.75 C 11.546875 10.15625 11.675781 10.550781 11.875 10.9375 C 12.070312 11.320312 12.378906 11.703125 12.796875 12.078125 C 13.097656 12.347656 13.359375 12.554688 13.578125 12.703125 C 13.804688 12.847656 14.066406 12.957031 14.359375 13.03125 L 15.0625 12.25 C 14.976562 12.207031 14.894531 12.15625 14.8125 12.09375 C 14.738281 12.039062 14.664062 11.984375 14.59375 11.921875 C 14.300781 11.648438 14.082031 11.367188 13.9375 11.078125 C 13.789062 10.796875 13.691406 10.488281 13.640625 10.15625 C 13.597656 9.832031 13.585938 9.46875 13.609375 9.0625 C 13.640625 8.664062 13.695312 8.234375 13.78125 7.765625 C 13.957031 6.390625 14.113281 5.304688 14.25 4.515625 C 14.394531 3.722656 14.5 3.097656 14.5625 2.640625 C 14.632812 2.191406 14.664062 1.847656 14.65625 1.609375 C 14.65625 1.378906 14.609375 1.148438 14.515625 0.921875 L 14.40625 0.625 L 14.46875 0.546875 C 15.175781 1.109375 15.878906 1.476562 16.578125 1.65625 C 17.285156 1.84375 17.960938 1.882812 18.609375 1.78125 C 19.265625 1.6875 19.859375 1.484375 20.390625 1.171875 C 20.929688 0.859375 21.390625 0.492188 21.765625 0.078125 C 22.097656 -0.285156 22.394531 -0.753906 22.65625 -1.328125 C 22.925781 -1.910156 23.054688 -2.554688 23.046875 -3.265625 C 23.046875 -3.972656 22.851562 -4.734375 22.46875 -5.546875 C 22.09375 -6.359375 21.441406 -7.1875 20.515625 -8.03125 Z M 16.828125 -9.6875 L 18.9375 -7.78125 C 19.457031 -7.300781 19.863281 -6.789062 20.15625 -6.25 C 20.445312 -5.71875 20.617188 -5.171875 20.671875 -4.609375 C 20.734375 -4.054688 20.671875 -3.523438 20.484375 -3.015625 C 20.304688 -2.503906 20.015625 -2.023438 19.609375 -1.578125 C 19.273438 -1.203125 18.859375 -0.882812 18.359375 -0.625 C 17.867188 -0.375 17.335938 -0.222656 16.765625 -0.171875 C 16.191406 -0.128906 15.601562 -0.203125 15 -0.390625 C 14.394531 -0.585938 13.8125 -0.941406 13.25 -1.453125 L 11.109375 -3.390625 Z M 16.828125 -9.6875 "/></g></g></g><g fill="#000000" fill-opacity="1"><g transform="translate(290.315359, 101.746549)"><g><path d="M 17.953125 -8.84375 L 1.984375 2.734375 L 9.46875 13.046875 L 10.71875 12.140625 L 4.75 3.90625 L 11.4375 -0.953125 L 16.5625 6.125 L 17.625 5.375 L 12.5 -1.703125 L 18.21875 -5.859375 L 24.1875 2.375 L 25.4375 1.46875 Z M 17.953125 -8.84375 "/></g></g></g><g fill="#000000" fill-opacity="1"><g transform="translate(305.048127, 123.36508)"><g><path d="M 11.15625 10.71875 L 6.953125 15.5625 L 8.0625 18.0625 L 22.328125 1.625 L 21.765625 0.34375 L 0.34375 0.765625 L 0.875 1.953125 L 7.203125 1.84375 Z M 12.078125 9.671875 L 8.578125 1.8125 L 18.890625 1.671875 L 18.9375 1.765625 Z M 12.078125 9.671875 "/></g></g></g><g fill="#000000" fill-opacity="1"><g transform="translate(316.182785, 150.950102)"><g><path d="M 2.1875 10.46875 L 19.984375 6.75 L 21.53125 14.125 L 23.046875 13.8125 L 19.421875 -3.484375 L 17.90625 -3.171875 L 19.453125 4.234375 L 1.65625 7.953125 Z M 2.1875 10.46875 "/></g></g></g><g fill="#000000" fill-opacity="1"><g transform="translate(320.774966, 178.749023)"><g><path d="M 19.84375 4.0625 L 0.109375 4.515625 L 0.171875 7.078125 L 19.90625 6.625 Z M 19.84375 4.0625 "/></g></g></g><g fill="#000000" fill-opacity="1"><g transform="translate(320.764678, 199.73124)"><g><path d="M 19.328125 4.015625 L -1.46875 8.984375 L -1.75 10.65625 L 16.4375 21.734375 L 16.671875 20.28125 L 1.71875 11.1875 L 1.734375 11.078125 L 18.84375 7.03125 Z M 19.328125 4.015625 "/></g></g></g><g fill="#000000" fill-opacity="1"><g transform="translate(315.046627, 228.001438)"><g><path d="M 17.21875 10.21875 L -1.203125 3.15625 L -5.78125 15.046875 L -4.34375 15.59375 L -0.6875 6.109375 L 7.03125 9.078125 L 3.890625 17.234375 L 5.109375 17.703125 L 8.25 9.546875 L 14.859375 12.078125 L 11.203125 21.5625 L 12.640625 22.109375 Z M 17.21875 10.21875 "/></g></g></g><g fill="#000000" fill-opacity="1"><g transform="translate(304.82636, 252.168249)"><g><path d="M 3.65625 3.546875 C 2.96875 3.140625 2.238281 2.921875 1.46875 2.890625 C 0.695312 2.867188 -0.0546875 3.015625 -0.796875 3.328125 C -1.535156 3.648438 -2.253906 4.125 -2.953125 4.75 C -3.660156 5.382812 -4.300781 6.148438 -4.875 7.046875 C -5.457031 7.972656 -5.867188 8.875 -6.109375 9.75 C -6.347656 10.632812 -6.425781 11.472656 -6.34375 12.265625 C -6.257812 13.054688 -6.015625 13.78125 -5.609375 14.4375 C -5.210938 15.09375 -4.65625 15.644531 -3.9375 16.09375 C -2.945312 16.71875 -1.984375 16.976562 -1.046875 16.875 C -0.109375 16.78125 0.800781 16.492188 1.6875 16.015625 C 2.582031 15.546875 3.441406 14.96875 4.265625 14.28125 C 5.097656 13.601562 5.90625 12.992188 6.6875 12.453125 C 7.476562 11.910156 8.234375 11.519531 8.953125 11.28125 C 9.679688 11.050781 10.390625 11.15625 11.078125 11.59375 C 11.453125 11.832031 11.753906 12.144531 11.984375 12.53125 C 12.222656 12.914062 12.359375 13.347656 12.390625 13.828125 C 12.429688 14.304688 12.375 14.828125 12.21875 15.390625 C 12.070312 15.960938 11.804688 16.5625 11.421875 17.1875 C 10.765625 18.21875 9.988281 18.957031 9.09375 19.40625 C 8.195312 19.851562 7.242188 19.84375 6.234375 19.375 L 5.203125 21 C 5.847656 21.269531 6.515625 21.382812 7.203125 21.34375 C 7.890625 21.3125 8.550781 21.144531 9.1875 20.84375 C 9.832031 20.539062 10.4375 20.117188 11 19.578125 C 11.570312 19.046875 12.082031 18.425781 12.53125 17.71875 C 12.988281 16.988281 13.332031 16.234375 13.5625 15.453125 C 13.789062 14.679688 13.878906 13.929688 13.828125 13.203125 C 13.785156 12.472656 13.578125 11.78125 13.203125 11.125 C 12.828125 10.476562 12.285156 9.929688 11.578125 9.484375 C 10.628906 8.890625 9.71875 8.648438 8.84375 8.765625 C 7.976562 8.878906 7.128906 9.175781 6.296875 9.65625 C 5.460938 10.144531 4.640625 10.722656 3.828125 11.390625 C 3.023438 12.054688 2.222656 12.644531 1.421875 13.15625 C 0.628906 13.664062 -0.160156 14 -0.953125 14.15625 C -1.742188 14.320312 -2.554688 14.144531 -3.390625 13.625 C -4.421875 12.976562 -4.929688 12.128906 -4.921875 11.078125 C -4.921875 10.023438 -4.523438 8.867188 -3.734375 7.609375 C -3.109375 6.609375 -2.472656 5.890625 -1.828125 5.453125 C -1.179688 5.015625 -0.570312 4.75 0 4.65625 C 0.5625 4.570312 1.070312 4.59375 1.53125 4.71875 C 1.988281 4.851562 2.359375 5 2.640625 5.15625 Z M 3.65625 3.546875 "/></g></g></g><g fill="#000000" fill-opacity="1"><g transform="translate(289.398371, 274.427197)"><g/></g></g><g fill="#000000" fill-opacity="1"><g transform="translate(276.207542, 288.481944)"><g><path d="M -13.71875 14.984375 C -13.28125 12.390625 -12.015625 10.296875 -9.921875 8.703125 C -8.753906 7.816406 -7.566406 7.234375 -6.359375 6.953125 C -5.148438 6.671875 -3.992188 6.640625 -2.890625 6.859375 C -1.785156 7.078125 -0.742188 7.507812 0.234375 8.15625 C 1.210938 8.8125 2.066406 9.617188 2.796875 10.578125 C 3.554688 11.585938 4.097656 12.640625 4.421875 13.734375 C 4.742188 14.835938 4.847656 15.914062 4.734375 16.96875 C 4.617188 18.019531 4.289062 19.019531 3.75 19.96875 C 3.207031 20.925781 2.460938 21.765625 1.515625 22.484375 C 0.867188 22.972656 0.226562 23.34375 -0.40625 23.59375 C -1.050781 23.84375 -1.671875 24.003906 -2.265625 24.078125 C -2.859375 24.148438 -3.398438 24.128906 -3.890625 24.015625 C -4.390625 23.910156 -4.8125 23.742188 -5.15625 23.515625 L -6.8125 24.78125 C -6.207031 25.113281 -5.5625 25.363281 -4.875 25.53125 C -4.195312 25.695312 -3.476562 25.738281 -2.71875 25.65625 C -1.957031 25.582031 -1.15625 25.363281 -0.3125 25 C 0.53125 24.644531 1.398438 24.128906 2.296875 23.453125 C 3.597656 22.460938 4.640625 21.375 5.421875 20.1875 C 6.210938 19 6.722656 17.765625 6.953125 16.484375 C 7.191406 15.203125 7.148438 13.910156 6.828125 12.609375 C 6.503906 11.316406 5.878906 10.066406 4.953125 8.859375 C 4.160156 7.816406 3.21875 6.921875 2.125 6.171875 C 1.039062 5.429688 -0.144531 4.941406 -1.4375 4.703125 C -2.726562 4.472656 -4.097656 4.535156 -5.546875 4.890625 C -6.992188 5.242188 -8.476562 6 -10 7.15625 C -10.957031 7.875 -11.742188 8.613281 -12.359375 9.375 C -12.972656 10.132812 -13.460938 10.859375 -13.828125 11.546875 C -14.203125 12.242188 -14.460938 12.878906 -14.609375 13.453125 C -14.753906 14.035156 -14.835938 14.515625 -14.859375 14.890625 Z M -13.71875 14.984375 "/></g></g></g><g fill="#000000" fill-opacity="1"><g transform="translate(251.508943, 306.116139)"><g><path d="M 2.671875 9.59375 C 2.253906 8.625 1.617188 7.675781 0.765625 6.75 C -0.0859375 5.820312 -1.113281 5.066406 -2.3125 4.484375 C -3.507812 3.898438 -4.851562 3.570312 -6.34375 3.5 C -7.832031 3.425781 -9.429688 3.765625 -11.140625 4.515625 C -12.285156 5.015625 -13.265625 5.613281 -14.078125 6.3125 C -14.898438 7.007812 -15.578125 7.757812 -16.109375 8.5625 C -16.640625 9.375 -17.039062 10.210938 -17.3125 11.078125 C -17.59375 11.953125 -17.753906 12.816406 -17.796875 13.671875 C -17.847656 14.523438 -17.804688 15.34375 -17.671875 16.125 C -17.546875 16.90625 -17.347656 17.613281 -17.078125 18.25 C -16.648438 19.207031 -16 20.148438 -15.125 21.078125 C -14.25 22.003906 -13.195312 22.75 -11.96875 23.3125 C -10.738281 23.875 -9.351562 24.179688 -7.8125 24.234375 C -6.28125 24.296875 -4.65625 23.953125 -2.9375 23.203125 C -1.226562 22.453125 0.0976562 21.507812 1.046875 20.375 C 2.003906 19.238281 2.675781 18.035156 3.0625 16.765625 C 3.445312 15.492188 3.585938 14.222656 3.484375 12.953125 C 3.378906 11.691406 3.109375 10.570312 2.671875 9.59375 Z M 0.125 10.703125 C 0.65625 11.910156 0.957031 13.097656 1.03125 14.265625 C 1.101562 15.441406 0.972656 16.53125 0.640625 17.53125 C 0.316406 18.539062 -0.191406 19.441406 -0.890625 20.234375 C -1.585938 21.023438 -2.453125 21.644531 -3.484375 22.09375 C -4.503906 22.539062 -5.550781 22.757812 -6.625 22.75 C -7.707031 22.738281 -8.742188 22.519531 -9.734375 22.09375 C -10.734375 21.664062 -11.648438 21.035156 -12.484375 20.203125 C -13.328125 19.367188 -14.015625 18.347656 -14.546875 17.140625 C -15.066406 15.941406 -15.347656 14.75 -15.390625 13.5625 C -15.441406 12.382812 -15.285156 11.285156 -14.921875 10.265625 C -14.566406 9.253906 -14.023438 8.347656 -13.296875 7.546875 C -12.578125 6.742188 -11.707031 6.117188 -10.6875 5.671875 C -9.65625 5.222656 -8.613281 5.007812 -7.5625 5.03125 C -6.507812 5.050781 -5.5 5.28125 -4.53125 5.71875 C -3.570312 6.15625 -2.6875 6.796875 -1.875 7.640625 C -1.0625 8.484375 -0.394531 9.503906 0.125 10.703125 Z M 0.125 10.703125 "/></g></g></g><g fill="#000000" fill-opacity="1"><g transform="translate(220.8267, 318.635225)"><g><path d="M -2.265625 20.3125 L -0.375 20.015625 L -3.34375 0.5 L -4.578125 0.703125 L -2.15625 16.609375 L -2.265625 16.625 L -13.34375 1.671875 L -13.84375 1.75 L -20.1875 19.234375 L -20.296875 19.25 L -22.703125 3.453125 L -25.234375 3.84375 L -22.265625 23.359375 L -20.359375 23.0625 L -13.859375 4.9375 L -13.765625 4.921875 Z M -2.265625 20.3125 "/></g></g></g><g fill="#000000" fill-opacity="1"><g transform="translate(183.569038, 323.08798)"><g><path d="M -7.75 18.90625 L -5.84375 19.15625 L -3.34375 -0.421875 L -4.59375 -0.578125 L -6.625 15.390625 L -6.734375 15.375 L -13.296875 -2.046875 L -13.796875 -2.109375 L -24.703125 12.96875 L -24.8125 12.953125 L -22.78125 -2.90625 L -25.328125 -3.234375 L -27.828125 16.34375 L -25.90625 16.59375 L -14.703125 0.953125 L -14.59375 0.96875 Z M -7.75 18.90625 "/></g></g></g><g fill="#000000" fill-opacity="1"><g transform="translate(146.403695, 316.700172)"><g><path d="M -9.328125 17.53125 L -4.875 6.25 C -4.59375 5.53125 -4.351562 4.710938 -4.15625 3.796875 C -3.957031 2.890625 -3.972656 1.957031 -4.203125 1 C -4.429688 0.0390625 -4.960938 -0.882812 -5.796875 -1.78125 C -6.640625 -2.6875 -7.953125 -3.488281 -9.734375 -4.1875 C -10.859375 -4.632812 -11.921875 -4.851562 -12.921875 -4.84375 C -13.921875 -4.832031 -14.832031 -4.632812 -15.65625 -4.25 C -16.488281 -3.863281 -17.210938 -3.320312 -17.828125 -2.625 C -18.453125 -1.9375 -18.945312 -1.132812 -19.3125 -0.21875 L -24.03125 11.75 L -22.859375 12.203125 L -18.484375 1.109375 C -18.328125 0.722656 -18.164062 0.335938 -18 -0.046875 C -17.84375 -0.429688 -17.640625 -0.800781 -17.390625 -1.15625 C -17.148438 -1.519531 -16.859375 -1.859375 -16.515625 -2.171875 C -16.179688 -2.484375 -15.769531 -2.757812 -15.28125 -3 C -14.375 -3.445312 -13.476562 -3.632812 -12.59375 -3.5625 C -11.707031 -3.488281 -10.835938 -3.285156 -9.984375 -2.953125 C -9.242188 -2.660156 -8.632812 -2.285156 -8.15625 -1.828125 C -7.675781 -1.378906 -7.28125 -0.832031 -6.96875 -0.1875 C -6.695312 0.320312 -6.523438 0.789062 -6.453125 1.21875 C -6.378906 1.65625 -6.351562 2.0625 -6.375 2.4375 C -6.40625 2.820312 -6.476562 3.191406 -6.59375 3.546875 C -6.71875 3.898438 -6.847656 4.253906 -6.984375 4.609375 L -11.71875 16.59375 Z M -9.328125 17.53125 "/></g></g></g><g fill="#000000" fill-opacity="1"><g transform="translate(119.459235, 305.205036)"><g><path d="M -27.078125 5.234375 L -18.5 -7.15625 L -18.421875 -7.09375 L -14.328125 14.484375 L -14.203125 14.578125 L -2.78125 -1.921875 L -3.84375 -2.65625 L -12.421875 9.734375 L -12.515625 9.65625 L -16.59375 -11.921875 L -16.71875 -12 L -28.15625 4.5 Z M -27.078125 5.234375 "/></g></g></g><g fill="#000000" fill-opacity="1"><g transform="translate(93.109887, 285.078667)"><g><path d="M -17.359375 10.390625 L -3.125 -3.265625 L -4.90625 -5.109375 L -19.140625 8.546875 Z M -17.359375 10.390625 "/></g></g></g><g fill="#000000" fill-opacity="1"><g transform="translate(78.958031, 269.559706)"><g><path d="M -5.875 -8.921875 L -21.0625 1.078125 L -25.21875 -5.234375 L -26.515625 -4.390625 L -16.796875 10.375 L -15.5 9.53125 L -19.65625 3.21875 L -4.46875 -6.78125 Z M -5.875 -8.921875 "/></g></g></g><g fill="#000000" fill-opacity="1"><g transform="translate(64.398333, 245.64828)"><g><path d="M -18.65625 6.484375 L -9.765625 -4.375 L -2.828125 -7.125 L -3.765625 -9.515625 L -10.9375 -6.671875 L -24.671875 -8.703125 L -24.109375 -7.28125 L -12.21875 -5.5 L -12.171875 -5.390625 L -19.71875 3.78125 Z M -18.65625 6.484375 "/></g></g></g><g clip-path="url(#f6005d1830)"><g clip-path="url(#a7a13993fb)"><path fill="#000000" d="M 115.402344 90.515625 L 258.097656 90.515625 L 258.097656 236.480469 L 115.402344 236.480469 Z M 115.402344 90.515625 " fill-opacity="1" fill-rule="nonzero"/></g></g></svg>