<?xml version="1.0" standalone="no"?>
<!DOCTYPE svg PUBLIC "-//W3C//DTD SVG 20010904//EN"
 "http://www.w3.org/TR/2001/REC-SVG-20010904/DTD/svg10.dtd">
<svg version="1.0" xmlns="http://www.w3.org/2000/svg"
 width="90.000000pt" height="90.000000pt" viewBox="0 0 90.000000 90.000000"
 preserveAspectRatio="xMidYMid meet">
<metadata>
Created by potrace 1.14, written by Peter Selinger 2001-2017
</metadata>
<g transform="translate(0.000000,90.000000) scale(0.100000,-0.100000)"
fill="#000000" stroke="none">
<path d="M355 714 l-84 -176 24 -49 25 -49 -49 0 -50 0 -106 -217 c-58 -119
-104 -218 -102 -220 2 -2 200 -2 439 -1 l434 3 -215 442 c-119 243 -219 442
-224 442 -4 1 -45 -78 -92 -175z m170 -124 l75 -150 -103 0 -104 0 -23 50 -24
51 49 99 c27 55 50 100 52 100 2 0 37 -67 78 -150z m-92 -380 l76 -160 -50 0
-49 0 -75 157 c-41 86 -75 158 -75 160 0 1 22 3 48 3 l48 0 77 -160z m279 -1
l78 -159 -103 0 -103 0 -23 47 c-13 27 -48 99 -77 161 l-53 112 102 -1 102 0
77 -160z m-382 -151 c0 -5 -49 -8 -110 -8 -60 0 -110 2 -110 5 0 3 25 56 57
118 l56 112 53 -110 c29 -60 53 -113 54 -117z"/>
</g>
</svg>
