<?xml version="1.0" standalone="no"?>
<!DOCTYPE svg PUBLIC "-//W3C//DTD SVG 20010904//EN"
 "http://www.w3.org/TR/2001/REC-SVG-20010904/DTD/svg10.dtd">
<svg version="1.0" xmlns="http://www.w3.org/2000/svg"
 width="625.000000pt" height="625.000000pt" viewBox="0 0 625.000000 625.000000"
 preserveAspectRatio="xMidYMid meet">
<metadata>
Created by potrace 1.14, written by Peter Selinger 2001-2017
</metadata>
<g transform="translate(0.000000,625.000000) scale(0.100000,-0.100000)"
fill="#000000" stroke="none">
<path d="M3090 5773 c0 -5 -19 -8 -42 -8 -46 1 -175 -12 -217 -21 -14 -3 -46
-7 -71 -8 -25 -2 -45 -5 -45 -6 0 -1 -11 -3 -25 -5 -73 -8 -124 -17 -146 -25
-14 -6 -39 -13 -57 -16 -47 -9 -42 -7 -132 -38 -27 -10 -58 -19 -68 -21 -66
-14 -350 -143 -444 -202 -29 -18 -57 -33 -63 -33 -5 0 -10 -4 -10 -10 0 -5 -5
-10 -11 -10 -6 0 -23 -9 -39 -20 -15 -11 -30 -17 -33 -13 -4 3 -9 -2 -13 -11
-3 -9 -10 -16 -15 -16 -9 0 -107 -67 -124 -85 -5 -6 -32 -29 -60 -50 -27 -22
-61 -48 -74 -60 -49 -41 -247 -241 -281 -284 -19 -24 -50 -60 -67 -80 -18 -20
-33 -42 -33 -48 0 -7 -4 -13 -8 -13 -9 0 -82 -106 -82 -120 0 -6 -4 -10 -8
-10 -5 0 -17 -17 -28 -37 -10 -21 -22 -40 -25 -43 -3 -3 -14 -21 -25 -40 -10
-19 -22 -37 -26 -40 -5 -4 -51 -98 -128 -265 -10 -22 -22 -52 -25 -67 -4 -16
-10 -28 -14 -28 -4 0 -8 -6 -8 -12 -1 -19 -7 -42 -14 -48 -8 -7 -41 -122 -41
-142 1 -10 -3 -18 -8 -18 -5 0 -9 -8 -9 -17 0 -10 -9 -56 -21 -103 -12 -47
-22 -101 -24 -120 -2 -19 -5 -44 -9 -55 -3 -11 -8 -45 -11 -75 -8 -87 -19
-213 -20 -240 0 -14 -5 -28 -11 -32 -7 -5 -6 -8 1 -8 11 0 12 -60 0 -78 -4 -7
-4 -12 1 -12 4 0 9 -39 11 -88 4 -136 25 -333 45 -422 2 -8 10 -42 17 -75 8
-33 13 -63 12 -67 -1 -5 2 -8 7 -8 5 0 8 -8 6 -17 -1 -10 6 -40 16 -68 11 -27
19 -56 19 -63 0 -7 8 -31 19 -55 10 -23 23 -55 29 -72 6 -16 14 -39 18 -50 4
-11 6 -23 6 -27 -1 -5 3 -8 8 -8 5 0 9 -3 8 -7 -3 -15 94 -219 111 -233 3 -3
16 -26 29 -51 12 -26 29 -52 37 -59 8 -7 15 -17 15 -22 0 -9 118 -184 145
-215 5 -7 15 -18 20 -25 27 -35 162 -184 173 -191 7 -5 10 -12 7 -18 -4 -5 -1
-9 4 -9 6 0 26 -15 44 -33 17 -19 66 -63 109 -100 42 -36 73 -69 70 -73 -4 -4
-2 -4 4 -1 6 4 21 -1 32 -11 11 -10 33 -27 48 -38 15 -10 35 -27 46 -36 10
-10 20 -18 23 -18 9 0 70 -44 73 -52 2 -5 9 -8 16 -8 7 0 22 -9 34 -20 12 -12
22 -18 22 -14 0 4 9 -1 20 -11 11 -10 20 -14 20 -9 0 5 4 4 8 -2 4 -6 23 -19
42 -29 106 -54 156 -79 160 -80 3 0 32 -13 64 -28 33 -15 71 -30 85 -34 14 -3
49 -16 76 -28 28 -13 53 -23 58 -24 15 -2 29 -6 47 -14 30 -12 105 -30 118
-28 6 1 12 -3 12 -8 0 -5 8 -10 18 -10 53 -3 82 -7 82 -12 0 -4 21 -9 48 -13
26 -3 58 -9 72 -11 14 -3 45 -8 70 -10 25 -3 68 -7 95 -10 77 -9 495 -14 495
-6 0 3 26 6 58 6 31 0 62 2 67 4 6 3 17 6 25 7 8 1 35 5 60 8 25 3 72 10 105
16 33 7 66 12 73 12 6 1 12 5 12 10 0 5 11 6 25 4 14 -3 25 -1 25 3 0 3 8 7
18 8 74 6 522 182 522 206 0 4 4 6 9 2 5 -3 12 -1 16 5 4 6 11 8 16 5 5 -4 9
-2 9 3 0 5 8 12 18 15 30 10 119 64 228 139 149 103 164 114 211 158 24 21 43
36 43 33 0 -2 56 51 125 120 69 69 125 130 125 137 0 6 5 8 10 5 6 -3 10 -1
10 4 0 10 25 43 58 77 7 8 11 14 8 14 -3 0 11 17 29 37 19 21 35 43 35 49 0 7
7 14 15 18 8 3 15 12 15 21 0 8 4 15 8 15 5 0 19 19 32 42 13 24 28 48 32 53
20 23 98 161 98 173 0 6 3 12 8 12 4 0 15 20 25 45 11 25 23 45 29 45 5 0 6 5
2 11 -3 6 -2 14 3 18 12 8 94 214 108 271 2 8 13 41 24 73 11 31 18 57 16 57
-3 0 0 12 6 28 6 15 13 41 16 57 3 17 9 38 14 47 5 9 8 21 7 25 -1 4 2 31 7
58 5 28 8 53 7 58 -1 4 1 7 6 7 4 0 8 17 9 38 0 20 4 55 7 77 6 36 19 298 18
335 -9 202 -17 335 -22 335 -1 0 -3 16 -5 35 -3 37 -10 78 -25 145 -5 22 -12
56 -15 75 -8 42 -10 51 -18 70 -5 15 -38 125 -43 145 -7 31 -48 141 -55 150
-5 5 -9 15 -9 22 0 8 -9 33 -20 55 -11 23 -20 47 -20 54 0 7 -3 14 -7 16 -10
4 -73 130 -73 146 0 7 -4 12 -8 12 -4 0 -19 22 -33 50 -13 27 -27 50 -31 50
-5 0 -8 5 -8 11 0 14 -106 173 -126 190 -8 6 -14 16 -14 22 0 5 -11 20 -26 33
-14 13 -23 24 -20 24 6 0 -21 33 -54 70 -8 9 -32 34 -52 57 -20 23 -39 39 -42
35 -3 -3 -6 1 -6 10 0 8 -44 55 -97 104 -54 49 -108 99 -121 112 -12 12 -25
22 -27 22 -2 0 -44 31 -95 69 -163 123 -456 285 -615 342 -27 9 -88 31 -135
48 -47 18 -86 32 -87 31 -2 0 -4 0 -5 1 -2 0 -12 2 -23 4 -35 6 -78 16 -140
32 -33 8 -78 17 -100 20 -58 6 -95 11 -135 17 -33 5 -135 15 -205 20 -17 1
-35 5 -41 9 -6 3 -14 3 -18 0 -11 -11 -66 -10 -66 1 0 7 -3 8 -8 1 -8 -12 -32
-13 -49 -2 -7 5 -13 4 -13 0z m-27 -557 c-4 -5 1 -7 10 -3 10 3 17 2 17 -3 0
-5 9 -11 19 -15 11 -3 18 -12 15 -19 -4 -10 -13 -9 -42 5 -42 22 -71 24 -92 6
-25 -20 -52 -68 -46 -82 3 -8 1 -17 -4 -20 -13 -8 9 -66 33 -90 20 -18 35 -25
64 -27 7 -1 10 -5 7 -10 -3 -5 -11 -7 -17 -5 -7 2 -20 0 -29 -5 -12 -5 -18 -5
-18 2 0 5 -3 9 -7 9 -25 -4 -41 4 -56 31 -10 17 -15 30 -11 30 5 0 3 5 -4 12
-30 30 4 158 42 158 8 0 16 5 18 10 2 6 16 12 31 14 15 1 29 5 32 7 8 9 43 4
38 -5z m348 -41 c1 -5 2 -23 3 -38 2 -29 23 -50 40 -40 5 3 6 1 3 -4 -4 -6 0
-13 8 -17 11 -4 13 -11 6 -28 -4 -13 -6 -29 -4 -35 3 -7 0 -13 -6 -13 -5 0 -9
-14 -8 -31 1 -21 -4 -35 -16 -43 -25 -16 -33 2 -31 71 1 32 -3 64 -8 70 -6 7
-8 22 -5 33 3 11 2 20 -2 20 -15 0 -40 67 -29 78 12 12 47 -5 49 -23z m132
-52 c-36 -29 -49 -10 -21 29 19 27 21 28 34 11 12 -16 10 -21 -13 -40z m-892
10 c16 -42 18 -58 8 -74 -5 -8 -9 -11 -10 -6 -3 13 -6 22 -17 49 -10 24 -8 58
4 58 3 0 9 -12 15 -27z m-103 -102 c23 -11 42 -24 42 -30 0 -13 33 -23 54 -15
9 3 13 10 10 16 -3 5 3 4 15 -3 30 -20 47 -65 31 -84 -12 -14 -17 -12 -45 15
-17 16 -40 30 -50 30 -11 0 -40 10 -65 23 -25 12 -55 22 -68 21 -12 -1 -21 1
-19 3 3 2 -8 17 -24 34 -22 24 -26 33 -17 43 10 10 20 8 53 -10 22 -12 59 -31
83 -43z m-350 -55 c5 -24 -18 -48 -39 -43 -22 6 -45 -11 -54 -40 -5 -17 0 -29
19 -46 14 -13 27 -34 29 -48 7 -35 28 -77 42 -82 6 -3 28 9 49 26 42 35 71 43
79 23 9 -24 -35 -56 -71 -52 -22 2 -37 -2 -45 -13 -17 -23 -39 -20 -53 6 -6
13 -14 21 -17 18 -4 -3 -5 -2 -2 1 4 6 -14 42 -66 129 -13 21 -24 45 -25 52
-2 14 18 34 39 37 7 1 28 13 47 28 36 29 63 30 68 4z m972 -1 c0 -19 -25 -36
-44 -29 -21 8 -21 30 1 42 20 12 43 5 43 -13z m940 -14 c0 -4 12 -7 27 -5 28
3 67 -21 126 -77 22 -22 25 -28 13 -38 -7 -6 -21 -9 -30 -5 -16 6 -19 13 -19
47 0 9 -2 17 -6 18 -3 0 -14 3 -23 5 -72 19 -138 9 -138 -22 0 -8 -5 -14 -10
-14 -20 0 -31 -51 -22 -101 10 -50 3 -61 -23 -36 -28 29 -35 84 -16 139 15 44
25 56 61 75 46 25 60 28 60 14z m-1618 -58 c29 -26 21 -73 -9 -55 -13 8 -27
72 -16 72 3 0 15 -7 25 -17z m-288 -40 c-5 -5 -12 -12 -16 -18 -4 -6 -8 -2 -8
8 0 9 7 17 17 17 9 0 12 -3 7 -7z m-340 -138 c5 -15 -30 -41 -54 -40 -24 1
-78 -54 -85 -86 -8 -37 24 -93 65 -110 16 -7 26 -18 23 -24 -3 -5 0 -4 8 3 7
6 23 12 35 12 13 0 29 7 38 15 23 23 55 20 49 -5 -3 -11 -12 -20 -19 -20 -8 0
-14 -4 -14 -8 0 -4 -16 -14 -35 -20 -26 -10 -44 -10 -76 -2 -41 11 -115 71
-102 83 3 4 2 7 -4 7 -5 0 -10 6 -10 13 0 6 -4 27 -7 45 -4 19 -2 32 4 32 5 0
9 3 8 8 -7 32 66 103 118 114 27 6 52 -2 58 -17z m2661 -23 c3 -9 -11 -30 -35
-52 -36 -34 -45 -49 -41 -73 1 -5 -4 -7 -11 -5 -7 3 -30 -13 -51 -34 -33 -33
-41 -36 -58 -25 -27 17 -24 31 14 71 68 72 107 119 107 127 0 15 69 6 75 -9z
m-378 -14 c7 -5 17 -7 23 -3 6 3 10 -3 10 -15 0 -19 -5 -21 -37 -19 -46 4 -84
26 -76 44 5 15 58 10 80 -7z m-2173 -74 c29 -29 34 -39 26 -54 -6 -12 -17 -16
-30 -13 -12 3 -18 8 -15 11 9 9 -17 32 -36 32 -25 0 -46 39 -28 51 26 16 47 9
83 -27z m2621 -17 c-7 -54 -37 -74 -69 -45 -11 10 -11 15 1 26 7 7 13 24 13
37 0 13 6 25 13 28 19 7 45 -22 42 -46z m-111 -61 c-4 -11 -8 -46 -9 -76 -1
-69 -10 -86 -32 -64 -19 18 -20 114 -1 125 6 4 7 12 3 19 -9 15 13 30 32 23 9
-4 11 -13 7 -27z m349 -167 c17 -42 16 -46 -17 -44 -22 1 -38 -6 -56 -25 -14
-15 -42 -35 -62 -44 -43 -20 -63 -62 -43 -89 7 -9 17 -17 24 -17 6 0 11 -11
11 -25 0 -14 -3 -25 -6 -25 -13 0 -34 30 -34 48 0 11 -13 33 -30 49 -37 35
-38 57 -2 80 15 10 50 35 77 56 28 20 58 43 67 51 27 19 60 13 71 -15z m-3333
-54 c30 -3 69 -9 85 -12 17 -4 35 -7 40 -8 6 -1 12 -3 15 -4 3 -2 14 -4 24 -6
10 -2 23 -10 27 -17 13 -20 -17 -38 -49 -28 -15 4 -44 6 -65 5 -20 -1 -37 2
-37 7 0 12 -78 10 -85 -2 -8 -13 -27 6 -48 47 l-17 31 28 -3 c15 -2 52 -7 82
-10z m3383 -37 c-2 -5 -10 -8 -18 -8 -11 0 -13 12 -6 38 1 1 7 -3 15 -10 8 -7
12 -16 9 -20z m-3334 -133 c-1 -30 -5 -58 -10 -61 -5 -3 -8 -2 -7 3 3 9 -28
59 -51 82 -11 13 -11 16 5 22 11 4 29 8 41 8 20 1 22 -4 22 -54z m1608 -88 c6
-4 17 -24 24 -45 6 -20 42 -101 80 -179 38 -79 69 -147 69 -152 0 -5 3 -11 8
-13 7 -3 60 -108 59 -118 0 -3 12 -24 26 -47 15 -24 27 -49 27 -58 0 -8 5 -15
10 -15 6 0 10 -9 10 -20 0 -11 6 -23 13 -26 8 -3 14 -10 14 -17 0 -7 25 -65
57 -129 31 -65 56 -121 56 -124 -1 -4 2 -10 7 -13 9 -7 60 -111 61 -125 0 -5
4 -12 9 -15 8 -6 46 -80 47 -92 2 -12 42 -84 51 -91 6 -4 7 -8 3 -8 -4 0 5
-24 20 -52 14 -29 27 -55 28 -58 0 -3 14 -32 29 -65 16 -33 28 -63 27 -67 -1
-5 2 -8 6 -8 5 0 17 -20 28 -45 10 -25 22 -45 26 -45 4 0 7 -3 6 -7 -3 -17 60
-153 71 -153 12 0 22 -43 11 -50 -7 -4 -1767 -6 -1792 -1 -12 2 -1 46 27 106
16 33 31 62 34 65 3 3 7 12 9 20 2 8 11 24 20 34 12 14 13 17 3 11 -10 -5 -7
2 5 21 25 36 59 106 56 117 -1 4 3 7 8 7 5 0 9 3 8 8 -2 7 33 83 42 92 9 8 41
84 40 94 -1 5 2 12 7 15 7 6 115 216 119 234 1 4 3 10 4 15 1 4 2 10 1 15 0 4
4 7 9 7 6 0 10 8 10 18 0 39 36 53 128 51 l87 -2 -1 29 c-1 16 -13 47 -28 68
-14 21 -26 45 -26 52 0 8 -5 14 -11 14 -5 0 -8 4 -4 9 3 5 1 12 -3 15 -5 3 -8
13 -7 23 1 16 48 119 74 163 18 32 101 210 100 216 0 4 3 10 8 13 7 5 34 55
38 71 1 3 27 60 60 126 56 116 65 128 92 111z m1773 -99 c-1 -23 -21 -58 -35
-58 -4 0 -19 9 -35 20 -24 17 -49 26 -82 29 -5 1 -8 8 -8 16 0 12 16 15 80 15
76 0 80 -1 80 -22z m123 10 c5 -15 -8 -42 -31 -67 -37 -38 -75 -88 -89 -118
-16 -31 -37 -44 -60 -36 -22 8 -14 42 17 71 17 16 30 35 30 42 0 7 3 11 6 7 9
-8 54 47 54 66 0 32 13 47 40 47 16 0 30 -6 33 -12z m-3781 -259 c71 -37 120
-136 78 -159 -11 -6 -20 -7 -21 -3 0 4 -2 15 -4 23 -2 8 -6 26 -9 39 -9 40
-30 54 -91 56 -56 3 -57 2 -86 -38 -45 -61 -36 -93 23 -89 15 1 28 -3 28 -8 0
-6 4 -9 10 -5 5 3 26 -1 47 -10 20 -9 43 -13 50 -11 21 8 41 -4 38 -22 -2 -9
-4 -20 -4 -25 -1 -9 -23 -5 -126 23 -44 12 -91 23 -104 24 -42 6 -47 36 -19
116 19 52 41 78 79 94 37 16 75 14 111 -5z m3921 -92 c2 -15 0 -30 -5 -33 -12
-8 -17 -2 -27 32 -7 25 -5 30 9 30 12 0 20 -10 23 -29z m13 -83 c17 -41 4 -62
-28 -46 -13 6 -30 10 -38 8 -42 -9 -70 -19 -70 -25 0 -3 -12 -7 -27 -8 -37 -2
-61 -8 -69 -16 -9 -9 -44 22 -44 39 0 17 13 24 53 31 18 2 43 7 57 10 14 3 44
7 67 10 23 3 48 11 54 19 17 20 31 13 45 -22z m14 -107 c0 -5 -4 -5 -10 -2 -5
3 -10 14 -10 23 0 15 2 15 10 2 5 -8 10 -19 10 -23z m-3923 -188 c-1 -12 -13
-24 -34 -31 -18 -7 -33 -15 -33 -20 0 -13 -44 -32 -73 -30 -17 2 -26 -2 -22
-8 3 -5 1 -10 -5 -10 -6 0 -8 -5 -5 -10 3 -6 4 -19 0 -29 -5 -18 -7 -18 -50 2
-24 11 -47 27 -50 35 -7 19 13 42 31 35 8 -3 14 0 14 6 0 6 3 10 8 9 7 -2 74
28 134 58 14 8 33 14 42 14 9 0 16 5 16 11 0 8 4 8 14 0 8 -7 14 -21 13 -32z
m3941 -72 c14 -10 16 -46 2 -49 -42 -6 -239 -3 -252 4 -16 8 -24 38 -14 49 8
8 251 4 264 -4z m-4007 -88 c31 -30 56 -69 44 -69 -2 0 -29 12 -59 26 -53 25
-100 64 -78 64 7 0 12 -6 13 -12 0 -7 5 -3 11 8 13 28 25 25 69 -17z m4007
-223 c2 -29 -42 -50 -100 -47 -21 0 -38 -4 -38 -10 0 -5 -4 -8 -10 -4 -5 3
-18 -3 -30 -15 -11 -11 -29 -20 -40 -20 -27 0 -70 21 -64 31 3 5 0 9 -6 9 -7
0 -7 5 2 13 11 11 40 21 98 31 3 1 11 5 18 10 7 4 15 6 18 3 3 -2 24 1 47 9
23 7 56 13 72 13 25 1 31 -3 33 -23z m-124 -138 c11 -10 28 -18 38 -18 10 0
18 -5 18 -11 0 -5 5 -7 10 -4 6 3 10 4 10 1 0 -2 3 -11 6 -19 10 -28 -26 -27
-59 2 -17 15 -40 30 -49 34 -20 7 -25 38 -6 35 7 -2 21 -11 32 -20z m-199
-218 c4 -6 11 -8 16 -5 5 4 9 1 9 -4 0 -6 7 -11 15 -11 24 0 149 -54 162 -70
14 -17 17 -60 5 -60 -5 0 -8 -12 -7 -27 2 -36 -15 -63 -39 -63 -11 0 -16 3
-13 7 4 3 2 12 -4 20 -7 8 -8 13 -1 13 9 0 19 21 28 62 4 19 -24 38 -62 43
-14 1 -33 10 -44 20 -19 17 -95 24 -109 10 -3 -4 -6 -27 -6 -52 0 -36 -4 -46
-18 -49 -24 -3 -33 40 -14 70 9 13 19 39 22 59 6 32 15 41 47 46 4 0 10 -4 13
-9z m-3490 -70 c11 -17 -5 -50 -24 -50 -10 0 -30 -9 -43 -20 -14 -10 -27 -17
-30 -15 -2 3 -15 -14 -29 -37 -39 -66 -67 -92 -84 -78 -24 20 -18 49 16 79 34
31 42 58 25 80 -8 11 -8 13 2 7 7 -4 12 -2 12 4 0 7 6 10 13 7 7 -2 32 3 57
13 53 21 76 24 85 10z m-213 -9 c4 0 5 -7 2 -15 -6 -15 -48 -10 -64 9 -8 9 -3
12 22 10 18 -2 36 -3 40 -4z m3781 -81 c6 -24 -18 -33 -38 -14 -17 17 -21 39
-5 29 6 -3 10 -2 10 4 0 17 28 1 33 -19z m-201 -155 c3 3 11 -2 18 -10 18 -22
-7 -47 -49 -49 -28 -1 -37 -11 -32 -38 0 -5 -3 -8 -8 -8 -20 0 -6 -41 16 -46
22 -6 34 1 77 44 24 25 46 29 87 19 29 -7 52 -47 39 -67 -5 -7 -4 -24 1 -37
14 -36 -14 -73 -56 -73 -50 0 -68 32 -22 39 4 0 17 10 29 21 12 11 25 20 28
20 4 0 7 7 7 16 0 19 -50 41 -55 25 -2 -6 -8 -8 -14 -5 -5 3 -16 -3 -24 -15
-9 -12 -19 -19 -24 -16 -4 3 -10 0 -12 -5 -5 -16 -59 -22 -89 -10 -15 7 -32
24 -38 38 -12 30 -11 72 2 72 4 0 5 5 2 10 -8 13 63 82 76 75 5 -4 9 -1 9 6 0
8 3 9 13 0 8 -6 16 -9 19 -6z m-3185 -102 c7 -17 0 -23 -79 -78 -44 -30 -46
-32 -73 -34 -28 -2 -34 -43 -14 -83 11 -21 15 -38 10 -38 -20 0 -41 12 -35 21
3 5 1 9 -5 9 -14 0 -50 80 -44 97 3 7 8 12 11 11 15 -4 58 16 78 36 11 12 31
28 43 36 13 8 30 20 39 27 24 18 62 16 69 -4z m-274 -60 c-5 -11 -8 -12 -13
-2 -5 7 -6 19 -3 26 5 11 8 12 13 2 5 -7 6 -19 3 -26z m477 -216 c0 -20 -92
-117 -111 -117 -5 0 -9 -6 -9 -13 0 -7 -10 -21 -21 -31 -17 -14 -27 -16 -44
-8 -29 13 -28 35 4 58 14 11 53 47 88 81 63 64 93 73 93 30z m2593 -167 c41
-24 58 -58 63 -123 3 -51 -6 -75 -45 -119 -44 -50 -154 -55 -136 -6 5 12 16
15 39 12 46 -5 97 39 101 87 6 74 -32 121 -102 124 -48 2 -55 -3 -101 -59 -7
-9 -23 -16 -36 -16 -31 0 -25 28 13 66 64 66 131 77 204 34z m-2404 -4 c7 -8
14 -36 15 -63 3 -50 35 -173 45 -173 3 0 7 -18 8 -40 2 -30 -2 -42 -16 -50
-15 -7 -21 -6 -27 8 -10 24 -15 43 -19 77 -1 17 -5 37 -8 45 -3 8 -8 31 -11
50 -5 28 -34 70 -49 70 -2 0 -4 -14 -5 -32 -2 -17 -8 -38 -14 -45 -6 -7 -7
-13 -3 -13 4 0 -4 -11 -19 -25 -33 -31 -60 -24 -51 13 3 14 14 33 24 41 10 9
21 26 25 39 4 12 11 20 16 17 9 -6 31 18 34 37 3 21 26 58 35 58 5 0 14 -6 20
-14z m191 -141 c0 -17 -9 -29 -30 -40 -23 -12 -30 -12 -30 -3 0 9 -3 8 -10 -2
-19 -29 -10 5 10 38 24 40 60 44 60 7z m1790 -65 c0 -5 6 -7 13 -5 6 2 26 -15
44 -38 35 -47 59 -117 40 -117 -9 0 -9 -2 0 -8 16 -10 -6 -55 -39 -82 -24 -20
-103 -51 -111 -44 -2 3 -14 6 -25 9 -12 2 -29 10 -38 17 -49 41 -73 66 -67 71
3 4 1 7 -5 7 -17 0 -8 102 12 132 28 43 75 68 129 68 26 0 47 -4 47 -10z
m-1537 -29 c4 0 7 -6 7 -12 0 -5 -5 -7 -10 -4 -6 4 -24 4 -40 0 -21 -5 -30
-14 -35 -36 -4 -16 -10 -29 -13 -29 -11 0 -32 -52 -32 -78 0 -13 -5 -32 -10
-42 -14 -25 -42 -15 -36 14 10 57 19 86 27 86 5 0 8 3 7 8 -4 14 14 52 24 52
6 0 9 3 5 6 -3 4 3 14 15 24 18 14 46 18 91 11z m48 -21 c33 0 53 -44 46 -102
-4 -28 -10 -54 -15 -57 -8 -6 -21 -42 -29 -86 -6 -31 -21 -41 -41 -28 -17 11
-19 51 -4 63 4 3 8 12 8 20 0 8 8 30 18 49 22 42 24 101 2 117 -9 6 -16 20
-15 30 0 11 3 13 6 7 2 -7 13 -13 24 -13z m291 -92 c3 -7 4 -35 3 -63 -2 -27
0 -69 5 -92 4 -24 4 -43 0 -43 -4 0 -8 -6 -7 -12 1 -34 -4 -48 -18 -48 -8 0
-15 -5 -15 -12 0 -6 -9 -2 -21 10 -11 12 -18 26 -16 30 5 8 20 146 19 174 0
10 4 20 9 23 5 4 6 11 3 17 -4 6 0 14 7 19 19 12 26 11 31 -3z m799 -56 c-6
-2 -9 -8 -6 -13 4 -5 -1 -6 -9 -3 -9 3 -16 11 -17 18 0 6 -2 22 -5 36 -4 25
-4 25 22 -5 16 -17 22 -31 15 -33z m-635 24 c2 -6 6 -24 9 -41 3 -16 8 -37 10
-45 2 -8 4 -27 4 -43 1 -15 4 -26 9 -26 29 5 42 -4 50 -33 20 -76 -25 -112
-49 -40 -7 20 -14 39 -14 42 -1 3 -9 22 -18 44 -9 21 -17 42 -17 46 0 16 -40
42 -62 40 -40 -4 -42 -1 -17 24 13 13 29 31 36 39 13 17 52 12 59 -7z m515 -7
c16 -17 32 -42 35 -55 3 -13 10 -24 16 -24 5 0 6 -5 3 -10 -4 -6 -3 -10 2 -9
33 6 53 -5 72 -37 41 -70 10 -105 -39 -43 -14 17 -37 45 -52 62 -15 18 -28 40
-28 50 0 10 -4 16 -9 12 -5 -3 -16 2 -25 10 -8 9 -18 15 -21 15 -22 -5 -29 8
-18 33 16 35 28 34 64 -4z m-156 2 c3 -10 5 -23 4 -27 -1 -5 0 -12 1 -16 1 -5
3 -20 4 -35 2 -36 15 -73 25 -73 4 0 7 -24 7 -52 -1 -41 -5 -53 -18 -56 -22
-4 -36 25 -43 85 -3 26 -7 59 -10 73 -3 14 -8 46 -11 73 -6 43 -5 47 14 47 11
0 23 -8 27 -19z m-246 -23 c6 -16 4 -33 -6 -52 l-15 -30 -13 30 c-7 16 -10 34
-6 39 3 6 6 13 7 18 3 15 4 17 14 17 6 0 14 -10 19 -22z"/>
<path d="M3098 3693 c-17 -38 -32 -73 -33 -79 -3 -14 -54 -115 -92 -184 -29
-52 -41 -110 -22 -110 5 0 8 -3 7 -7 -3 -11 43 -106 55 -114 5 -4 7 -11 3 -17
-3 -5 1 -16 10 -23 12 -9 58 -12 185 -10 120 2 175 -1 185 -10 11 -9 14 -9 14
0 0 7 4 10 9 6 19 -11 21 15 4 47 -9 18 -17 35 -18 38 0 3 -30 66 -66 140 -36
74 -71 146 -77 160 -7 14 -16 32 -21 40 -15 23 -69 142 -76 168 -11 40 -35 24
-67 -45z"/>
<path d="M2760 3001 c-9 -16 13 -69 34 -83 6 -5 7 -8 1 -8 -6 0 -6 -3 1 -8 5
-4 21 -33 33 -64 13 -32 27 -58 32 -58 5 0 9 -7 9 -15 0 -17 71 -159 82 -163
5 -2 8 -9 8 -15 0 -11 71 -168 80 -177 3 -3 10 -14 16 -25 10 -18 22 -20 105
-20 l94 0 -4 25 c-1 14 -6 27 -10 30 -9 6 -91 178 -91 191 0 5 -5 9 -11 9 -5
0 -8 4 -4 9 3 5 -1 16 -9 24 -8 8 -12 17 -9 21 4 3 1 6 -5 6 -7 0 -12 6 -12
13 0 6 -22 56 -50 110 -27 53 -47 97 -44 97 2 0 -7 18 -21 40 -14 22 -23 40
-20 40 3 0 0 6 -7 14 -7 8 -16 12 -20 9 -5 -2 -8 1 -8 7 0 7 -7 8 -17 3 -16
-8 -40 -9 -53 -3 -3 1 -24 3 -48 4 -30 2 -46 -2 -52 -13z"/>
<path d="M3108 3009 c-10 -7 -9 -14 4 -36 21 -34 141 -274 144 -288 1 -5 27
-57 58 -114 31 -58 56 -111 56 -118 0 -8 5 -11 12 -7 7 4 8 3 4 -5 -4 -6 2
-27 14 -45 l21 -34 174 2 c96 2 175 -1 175 -5 0 -5 7 -6 15 -4 8 3 22 7 30 10
12 3 13 9 3 30 -6 14 -15 25 -20 25 -5 0 -6 5 -3 10 3 6 1 10 -5 10 -7 0 -10
7 -6 15 3 8 2 15 -2 15 -5 0 -14 16 -22 35 -8 19 -18 35 -23 35 -5 0 -7 7 -4
15 4 8 2 17 -3 20 -7 4 -89 164 -95 185 -5 19 -51 106 -58 108 -4 2 -5 7 -2
12 3 5 -2 15 -11 24 -8 9 -13 20 -10 25 4 5 3 11 -1 13 -5 1 -15 16 -23 33
l-15 29 -183 -1 c-100 -1 -182 1 -182 6 0 10 -26 10 -42 0z"/>
<path d="M2655 2793 c-3 -16 -23 -64 -44 -108 -59 -122 -91 -194 -92 -202 0
-5 -7 -18 -15 -30 -8 -13 -12 -23 -9 -23 4 0 -1 -7 -9 -16 -9 -8 -16 -24 -16
-33 0 -17 14 -18 214 -17 118 0 212 4 210 8 -3 5 1 8 8 8 9 0 9 3 -2 10 -8 5
-11 10 -6 10 5 0 3 8 -5 18 -23 28 -51 82 -42 82 4 0 4 4 -2 8 -12 9 -49 84
-47 95 1 4 -3 7 -9 7 -6 0 -9 7 -6 15 4 8 2 17 -2 20 -11 6 -46 78 -43 88 1 4
-2 7 -6 7 -5 0 -16 18 -26 40 -20 46 -43 52 -51 13z"/>
<path d="M3878 1379 c-12 -10 -27 -15 -33 -12 -5 4 -7 3 -3 -2 4 -4 3 -14 -3
-22 -6 -7 -9 -13 -6 -13 3 0 2 -13 -3 -29 -5 -20 -3 -39 8 -62 24 -49 32 -54
90 -54 62 0 98 26 107 79 8 38 -19 111 -43 122 -33 14 -91 10 -114 -7z"/>
</g>
</svg>
